<svg width="36" height="36" viewBox="0 0 36 36" fill="none" xmlns="http://www.w3.org/2000/svg">
<path d="M19.5407 3C21.2288 3.00279 22.0842 3.01173 22.8234 3.03374L23.1146 3.04325C23.4509 3.0552 23.7827 3.0702 24.1827 3.08895C25.7789 3.1627 26.8677 3.4152 27.824 3.78645C28.8126 4.1677 29.6477 4.6827 30.4814 5.51646C31.3139 6.3502 31.829 7.1877 32.2115 8.17395C32.5814 9.12895 32.834 10.219 32.909 11.8152C32.9268 12.2152 32.9412 12.547 32.9531 12.8834L32.9625 13.1745C32.9844 13.9136 32.9945 14.7692 32.9976 16.4574L32.9988 17.5758C32.999 17.7124 32.999 17.8534 32.999 17.9989L32.9988 18.4221L32.9979 19.5406C32.9951 21.2287 32.9862 22.0843 32.9642 22.8234L32.9546 23.1145C32.9427 23.451 32.9277 23.7828 32.909 24.1827C32.8352 25.779 32.5814 26.8677 32.2115 27.8239C31.8302 28.8127 31.3139 29.6478 30.4814 30.4815C29.6477 31.314 28.8089 31.8289 27.824 32.2114C26.8677 32.5815 25.7789 32.8339 24.1827 32.9089C23.7827 32.9268 23.4509 32.9413 23.1146 32.953L22.8234 32.9625C22.0842 32.9845 21.2288 32.9944 19.5407 32.9977L18.4221 32.9989C18.2855 32.9989 18.1445 32.9989 17.999 32.9989H17.5758L16.4573 32.9979C14.7692 32.9952 13.9136 32.9862 13.1745 32.9641L12.8834 32.9547C12.547 32.9427 12.2152 32.9277 11.8152 32.9089C10.2189 32.8353 9.13145 32.5815 8.17395 32.2114C7.18644 31.8303 6.35019 31.314 5.51645 30.4815C4.6827 29.6478 4.16895 28.809 3.78645 27.8239C3.4152 26.8677 3.16395 25.779 3.08895 24.1827C3.07113 23.7828 3.0566 23.451 3.04482 23.1145L3.03539 22.8234C3.01344 22.0843 3.00344 21.2287 3.0002 19.5406L3 16.4574C3.00279 14.7692 3.01172 13.9136 3.03372 13.1745L3.04325 12.8834C3.0552 12.547 3.0702 12.2152 3.08895 11.8152C3.16269 10.2177 3.4152 9.1302 3.78645 8.17395C4.16769 7.18645 4.6827 6.3502 5.51645 5.51646C6.35019 4.6827 7.1877 4.16895 8.17395 3.78645C9.1302 3.4152 10.2177 3.16395 11.8152 3.08895C12.2152 3.07114 12.547 3.05661 12.8834 3.04484L13.1745 3.0354C13.9136 3.01344 14.7692 3.00343 16.4573 3.00019L19.5407 3ZM17.999 10.499C13.8546 10.499 10.499 13.8582 10.499 17.9989C10.499 22.1433 13.8582 25.4989 17.999 25.4989C22.1433 25.4989 25.499 22.1397 25.499 17.9989C25.499 13.8546 22.1396 10.499 17.999 10.499ZM17.999 13.4989C20.4843 13.4989 22.499 15.513 22.499 17.9989C22.499 20.4843 20.4849 22.4989 17.999 22.4989C15.5136 22.4989 13.499 20.485 13.499 17.9989C13.499 15.5136 15.5129 13.4989 17.999 13.4989ZM25.874 8.24895C24.84 8.24895 23.999 9.08881 23.999 10.1227C23.999 11.1565 24.8388 11.9977 25.874 11.9977C26.9078 11.9977 27.749 11.1579 27.749 10.1227C27.749 9.08881 26.9064 8.24766 25.874 8.24895Z" fill="white"/>
</svg>
