<svg width="36" height="36" viewBox="0 0 36 36" fill="none" xmlns="http://www.w3.org/2000/svg">
<path d="M18 6C24.6275 6 30 11.3725 30 18C30 24.6275 24.6275 30 18 30C11.3725 30 6 24.6275 6 18C6 11.3725 11.3725 6 18 6ZM22.1395 22.8915C22.36 22.2145 23.3945 15.465 23.522 14.135C23.5605 13.732 23.4335 13.4645 23.184 13.345C22.8825 13.2 22.436 13.2725 21.9175 13.4595C21.207 13.7155 12.1225 17.573 11.5975 17.796C11.1 18.0075 10.629 18.238 10.629 18.572C10.629 18.807 10.7685 18.939 11.1525 19.076C11.552 19.2185 12.5585 19.5235 13.153 19.6875C13.7255 19.8455 14.377 19.7085 14.742 19.4815C15.129 19.241 19.597 16.2515 19.9175 15.9895C20.238 15.7275 20.4935 16.063 20.2315 16.3255C19.9695 16.5875 16.903 19.564 16.4985 19.976C16.0075 20.4765 16.356 20.995 16.6855 21.2025C17.0615 21.4395 19.767 23.254 20.1745 23.545C20.582 23.836 20.995 23.968 21.3735 23.968C21.752 23.968 21.951 23.47 22.1395 22.8915Z" fill="white"/>
</svg>
