<svg width="366" height="58" viewBox="0 0 366 58" fill="none" xmlns="http://www.w3.org/2000/svg">
<path d="M3.886 46C3.306 46 3.016 45.71 3.016 45.13V8.88C3.016 8.3 3.306 8.01 3.886 8.01H14.964C15.3893 8.01 15.718 8.22266 15.95 8.648L22.272 21.176C22.7747 22.1813 23.316 23.322 23.896 24.598C24.476 25.8353 25.0173 27.0727 25.52 28.31C26.0227 29.5473 26.4093 30.63 26.68 31.558H26.912C26.796 30.8233 26.6993 29.992 26.622 29.064C26.5447 28.136 26.4673 27.1693 26.39 26.164C26.3513 25.1587 26.3127 24.192 26.274 23.264C26.2353 22.336 26.216 21.5047 26.216 20.77V8.88C26.216 8.3 26.4867 8.01 27.028 8.01H35.786C36.3273 8.01 36.598 8.3 36.598 8.88V45.13C36.598 45.71 36.3273 46 35.786 46H24.65C24.2247 46 23.896 45.7873 23.664 45.362L17.69 33.588C17.1873 32.5827 16.6653 31.442 16.124 30.166C15.6213 28.8513 15.1187 27.556 14.616 26.28C14.152 25.004 13.7267 23.902 13.34 22.974H13.108C13.1853 23.7087 13.2433 24.5593 13.282 25.526C13.3207 26.454 13.34 27.4207 13.34 28.426C13.3787 29.4313 13.398 30.4173 13.398 31.384C13.398 32.312 13.398 33.1627 13.398 33.936V45.13C13.398 45.71 13.108 46 12.528 46H3.886ZM62.9078 46.696C57.8811 46.696 54.0338 45.5747 51.3658 43.332C48.7365 41.0893 47.4218 37.706 47.4218 33.182V26.918C47.4218 22.394 48.7365 19.03 51.3658 16.826C54.0338 14.5833 57.8811 13.462 62.9078 13.462C67.9345 13.462 71.7625 14.5833 74.3918 16.826C77.0598 19.03 78.3938 22.394 78.3938 26.918V33.182C78.3938 37.706 77.0598 41.0893 74.3918 43.332C71.7625 45.5747 67.9345 46.696 62.9078 46.696ZM62.9078 37.764C64.6865 37.764 65.9818 37.3 66.7938 36.372C67.6445 35.444 68.0698 34.1487 68.0698 32.486V27.672C68.0698 25.9707 67.6445 24.6753 66.7938 23.786C65.9818 22.858 64.6865 22.394 62.9078 22.394C61.1291 22.394 59.8145 22.858 58.9638 23.786C58.1518 24.6753 57.7458 25.9707 57.7458 27.672V32.486C57.7458 34.1487 58.1518 35.444 58.9638 36.372C59.8145 37.3 61.1291 37.764 62.9078 37.764ZM89.3857 46C89.115 46 88.9024 45.9227 88.7477 45.768C88.593 45.6133 88.5157 45.4007 88.5157 45.13L89.2697 8.88C89.2697 8.3 89.5597 8.01 90.1397 8.01H100.116C100.58 8.01 100.908 8.22266 101.102 8.648L109.86 26.628L118.618 8.648C118.85 8.22266 119.198 8.01 119.662 8.01H129.638C130.179 8.01 130.45 8.3 130.45 8.88L131.204 45.13C131.204 45.4007 131.126 45.6133 130.972 45.768C130.817 45.9227 130.624 46 130.392 46H121.518C120.938 46 120.648 45.71 120.648 45.13L120.416 34.922C120.377 33.2207 120.396 31.4227 120.474 29.528C120.551 27.6333 120.628 25.8547 120.706 24.192H120.474C119.778 25.7773 119.004 27.4787 118.154 29.296C117.342 31.0747 116.491 32.7567 115.602 34.342L111.136 42.52C110.942 42.9067 110.594 43.1 110.092 43.1H109.628C109.164 43.1 108.835 42.9067 108.642 42.52L104.176 34.342C103.325 32.7567 102.474 31.0747 101.624 29.296C100.773 27.4787 99.9997 25.7773 99.3037 24.192H99.0717C99.149 25.8933 99.2264 27.6913 99.3037 29.586C99.381 31.4807 99.4004 33.2787 99.3617 34.98L99.1297 45.13C99.1297 45.71 98.8397 46 98.2597 46H89.3857ZM156.863 46.696C151.837 46.696 147.989 45.5747 145.321 43.332C142.692 41.0893 141.377 37.706 141.377 33.182V26.918C141.377 22.394 142.692 19.03 145.321 16.826C147.989 14.5833 151.837 13.462 156.863 13.462C161.89 13.462 165.718 14.5833 168.347 16.826C171.015 19.03 172.349 22.394 172.349 26.918V33.182C172.349 37.706 171.015 41.0893 168.347 43.332C165.718 45.5747 161.89 46.696 156.863 46.696ZM156.863 37.764C158.642 37.764 159.937 37.3 160.749 36.372C161.6 35.444 162.025 34.1487 162.025 32.486V27.672C162.025 25.9707 161.6 24.6753 160.749 23.786C159.937 22.858 158.642 22.394 156.863 22.394C155.085 22.394 153.77 22.858 152.919 23.786C152.107 24.6753 151.701 25.9707 151.701 27.672V32.486C151.701 34.1487 152.107 35.444 152.919 36.372C153.77 37.3 155.085 37.764 156.863 37.764ZM183.689 46C183.148 46 182.877 45.7293 182.877 45.188V14.97C182.877 14.4287 183.148 14.158 183.689 14.158H193.201C193.549 14.158 193.859 14.3513 194.129 14.738L197.203 19.61C198.866 22.2007 200.123 24.2887 200.973 25.874C201.863 27.4593 202.539 28.774 203.003 29.818C203.467 30.862 203.893 31.8867 204.279 32.892H204.453C204.299 32.0027 204.144 31.1133 203.989 30.224C203.835 29.296 203.699 28.31 203.583 27.266C203.506 26.222 203.429 25.0813 203.351 23.844C203.313 22.568 203.293 21.1373 203.293 19.552V14.97C203.293 14.4287 203.545 14.158 204.047 14.158H212.515C213.018 14.158 213.269 14.4287 213.269 14.97V45.188C213.269 45.7293 213.018 46 212.515 46H202.945C202.597 46 202.288 45.8067 202.017 45.42L198.769 40.142C197.416 37.938 196.314 36.1207 195.463 34.69C194.651 33.2207 194.013 31.9447 193.549 30.862C193.085 29.7793 192.679 28.7353 192.331 27.73H192.157C192.273 28.5807 192.37 29.47 192.447 30.398C192.563 31.2873 192.641 32.2347 192.679 33.24C192.757 34.2453 192.795 35.328 192.795 36.488C192.834 37.6093 192.853 38.8273 192.853 40.142V45.188C192.853 45.7293 192.583 46 192.041 46H183.689ZM225.343 46C224.801 46 224.531 45.7293 224.531 45.188V14.97C224.531 14.4287 224.801 14.158 225.343 14.158H238.625C244.154 14.158 248.233 15.3567 250.863 17.754C253.492 20.1127 254.807 23.5733 254.807 28.136V32.312C254.807 36.7587 253.492 40.1613 250.863 42.52C248.233 44.84 244.154 46 238.625 46H225.343ZM234.855 37.01H238.219C240.5 37.01 242.105 36.5267 243.033 35.56C243.999 34.5933 244.483 33.3173 244.483 31.732V28.716C244.483 27.0147 243.999 25.6613 243.033 24.656C242.105 23.612 240.5 23.09 238.219 23.09H234.855V37.01ZM262.115 46C261.496 46 261.284 45.6907 261.477 45.072L272.033 14.796C272.188 14.3707 272.497 14.158 272.961 14.158H284.213C284.677 14.158 284.986 14.3707 285.141 14.796L295.697 45.072C295.774 45.3427 295.774 45.5747 295.697 45.768C295.62 45.9227 295.426 46 295.117 46H285.547C285.276 46 285.083 45.942 284.967 45.826C284.851 45.6713 284.754 45.5167 284.677 45.362L280.733 31.268C280.269 29.6053 279.863 28.078 279.515 26.686C279.167 25.2553 278.877 23.8247 278.645 22.394H278.471C278.239 23.8247 277.949 25.2553 277.601 26.686C277.292 28.1167 276.905 29.6827 276.441 31.384L272.613 45.304C272.497 45.768 272.188 46 271.685 46H262.115ZM272.323 41.418L273.773 33.472H283.111L284.677 41.418H272.323ZM309.536 46C309.304 46 309.111 45.9227 308.956 45.768C308.801 45.6133 308.724 45.42 308.724 45.188V34.922L297.298 15.086C297.143 14.8153 297.124 14.6027 297.24 14.448C297.395 14.2547 297.607 14.158 297.878 14.158H307.622C308.009 14.158 308.318 14.3513 308.55 14.738L311.566 20.538C311.991 21.3113 312.397 22.2007 312.784 23.206C313.209 24.2113 313.596 25.3713 313.944 26.686H314.06C314.447 25.3327 314.814 24.192 315.162 23.264C315.549 22.2973 315.935 21.4273 316.322 20.654L319.106 14.738C319.299 14.3513 319.609 14.158 320.034 14.158H329.662C329.971 14.158 330.184 14.2547 330.3 14.448C330.416 14.6027 330.397 14.8153 330.242 15.086L319.048 34.922V45.188C319.048 45.7293 318.797 46 318.294 46H309.536ZM350.223 46.696C345.506 46.696 341.987 45.8647 339.667 44.202C337.386 42.5393 336.516 39.8327 337.057 36.082C337.134 35.618 337.424 35.386 337.927 35.386H346.627C347.207 35.386 347.458 35.6567 347.381 36.198C347.342 36.8167 347.497 37.416 347.845 37.996C348.232 38.5373 349.005 38.808 350.165 38.808C351.596 38.808 352.562 38.6727 353.065 38.402C353.568 38.1313 353.819 37.706 353.819 37.126C353.819 36.8167 353.742 36.5653 353.587 36.372C353.432 36.14 353.181 35.9273 352.833 35.734C352.485 35.502 352.002 35.27 351.383 35.038L343.031 31.616C341.678 31.036 340.537 30.34 339.609 29.528C338.72 28.716 338.062 27.73 337.637 26.57C337.212 25.41 336.999 24.0953 336.999 22.626C337.038 19.4167 338.101 17.0967 340.189 15.666C342.277 14.1967 345.467 13.462 349.759 13.462C354.902 13.462 358.633 14.332 360.953 16.072C363.273 17.7733 364.22 20.4607 363.795 24.134C363.756 24.4047 363.679 24.598 363.563 24.714C363.447 24.83 363.254 24.888 362.983 24.888H354.225C353.645 24.888 353.394 24.6367 353.471 24.134C353.587 23.2833 353.355 22.6067 352.775 22.104C352.195 21.6013 351.286 21.35 350.049 21.35C349.121 21.35 348.425 21.4853 347.961 21.756C347.536 21.988 347.323 22.3747 347.323 22.916C347.323 23.148 347.4 23.3607 347.555 23.554C347.71 23.7473 347.961 23.9407 348.309 24.134C348.696 24.3273 349.16 24.54 349.701 24.772L358.111 28.31C359.542 28.89 360.702 29.5473 361.591 30.282C362.519 31.0167 363.196 31.9253 363.621 33.008C364.046 34.0907 364.24 35.4633 364.201 37.126C364.162 40.5287 363.041 42.984 360.837 44.492C358.633 45.9613 355.095 46.696 350.223 46.696Z" fill="url(#paint0_linear_156_1399)"/>
<defs>
<linearGradient id="paint0_linear_156_1399" x1="0" y1="0" x2="333.203" y2="139.862" gradientUnits="userSpaceOnUse">
<stop stop-color="#FF9447"/>
<stop offset="1" stop-color="#FF510B"/>
</linearGradient>
</defs>
</svg>
