<svg width="257" height="256" viewBox="0 0 257 256" fill="none" xmlns="http://www.w3.org/2000/svg">
<path d="M22.9302 44.0344C16.2628 50.5948 12.1365 59.67 12.1365 69.6986V184.003C12.1365 198.265 20.6104 211.201 33.784 217.049L51.5056 224.914V148.629L85.9695 175.463V105.74L22.9302 44.0344Z" fill="url(#paint0_linear_147_512)"/>
<path opacity="0.7" d="M22.9302 44.0344C16.2628 50.5948 12.1365 59.67 12.1365 69.6986V184.003C12.1365 198.265 20.6104 211.201 33.784 217.049L51.5056 224.914V148.629L85.9695 175.463V105.74L22.9302 44.0344Z" fill="url(#paint1_linear_147_512)"/>
<path d="M85.9678 15.6171V105.738V175.461V201.514V240.209L115.043 253.114C118.348 254.577 121.818 255.521 125.337 255.972V0C125.337 0 120.575 0.557754 116.622 2.23102L85.9678 15.6171Z" fill="url(#paint2_linear_147_512)"/>
<path d="M235.176 44.0794L190.238 88.4581L173.923 72.3468V117.849L190.238 134.83L207.13 118.148V225.006L224.533 217.125C237.567 211.22 245.921 198.356 245.921 184.196V69.6979C245.921 59.6932 241.815 50.6357 235.176 44.0794Z" fill="url(#paint3_linear_147_512)"/>
<path opacity="0.5" d="M235.176 44.0794L190.238 88.4581L173.923 72.3468V117.849L190.238 134.83L207.13 118.148V225.006L224.533 217.125C237.567 211.22 245.921 198.356 245.921 184.196V69.6979C245.921 59.6932 241.815 50.6357 235.176 44.0794Z" fill="url(#paint4_linear_147_512)"/>
<path d="M134.553 0V256C136.505 255.762 138.441 255.367 140.343 254.818L173.923 240.043V117.847V15.6168L140.343 1.11551C137.519 0.557754 134.553 0 134.553 0Z" fill="url(#paint5_linear_147_512)"/>
<defs>
<linearGradient id="paint0_linear_147_512" x1="73.0469" y1="185.9" x2="0.057342" y2="75.0356" gradientUnits="userSpaceOnUse">
<stop stop-color="#FF4500"/>
<stop offset="0.825781" stop-color="#FF974B"/>
<stop offset="1" stop-color="#FF9447"/>
</linearGradient>
<linearGradient id="paint1_linear_147_512" x1="96.3649" y1="147.722" x2="16.4158" y2="129.361" gradientUnits="userSpaceOnUse">
<stop offset="0.000712" stop-color="#A03460"/>
<stop offset="0.605" stop-color="#FFCE47" stop-opacity="0"/>
</linearGradient>
<linearGradient id="paint2_linear_147_512" x1="107.963" y1="270.289" x2="104.743" y2="79.5855" gradientUnits="userSpaceOnUse">
<stop stop-color="#FF4500"/>
<stop offset="1" stop-color="#FF9447"/>
</linearGradient>
<linearGradient id="paint3_linear_147_512" x1="161.924" y1="109.179" x2="254.803" y2="149.962" gradientUnits="userSpaceOnUse">
<stop stop-color="#FF4500"/>
<stop offset="0.773339" stop-color="#FF974B"/>
<stop offset="1" stop-color="#FF9447"/>
</linearGradient>
<linearGradient id="paint4_linear_147_512" x1="222.744" y1="134.516" x2="174.606" y2="135.352" gradientUnits="userSpaceOnUse">
<stop offset="0.395" stop-color="#FFCE47" stop-opacity="0"/>
<stop offset="0.9993" stop-color="#A03460"/>
</linearGradient>
<linearGradient id="paint5_linear_147_512" x1="156.061" y1="269.476" x2="152.842" y2="78.7724" gradientUnits="userSpaceOnUse">
<stop stop-color="#FF4500"/>
<stop offset="1" stop-color="#FF9447"/>
</linearGradient>
</defs>
</svg>
