<svg width="24" height="24" viewBox="0 0 24 24" fill="none" xmlns="http://www.w3.org/2000/svg">
<path d="M2.10274 4.12823C1.47766 4.74328 1.09082 5.59408 1.09082 6.53426V17.2503C1.09082 18.5874 1.88525 19.8001 3.12028 20.3483L4.78167 21.0857V13.934L8.01266 16.4496V9.91315L2.10274 4.12823Z" fill="url(#paint0_linear_156_1260)"/>
<path opacity="0.7" d="M2.10274 4.12823C1.47766 4.74328 1.09082 5.59408 1.09082 6.53426V17.2503C1.09082 18.5874 1.88525 19.8001 3.12028 20.3483L4.78167 21.0857V13.934L8.01266 16.4496V9.91315L2.10274 4.12823Z" fill="url(#paint1_linear_156_1260)"/>
<path d="M8.0127 1.46411V9.91291V16.4495V18.8919V22.5196L10.7385 23.7294C11.0483 23.8666 11.3736 23.9551 11.7035 23.9974V0C11.7035 0 11.2571 0.0522895 10.8865 0.209158L8.0127 1.46411Z" fill="url(#paint2_linear_156_1260)"/>
<path d="M22.001 4.13245L17.788 8.29295L16.2585 6.78252V11.0483L17.788 12.6403L19.3717 11.0764V21.0943L21.0032 20.3555C22.2251 19.8019 23.0084 18.5959 23.0084 17.2683V6.53418C23.0084 5.59624 22.6234 4.7471 22.001 4.13245Z" fill="url(#paint3_linear_156_1260)"/>
<path opacity="0.5" d="M22.001 4.13245L17.788 8.29295L16.2585 6.78252V11.0483L17.788 12.6403L19.3717 11.0764V21.0943L21.0032 20.3555C22.2251 19.8019 23.0084 18.5959 23.0084 17.2683V6.53418C23.0084 5.59624 22.6234 4.7471 22.001 4.13245Z" fill="url(#paint4_linear_156_1260)"/>
<path d="M12.5676 0V24C12.7506 23.9777 12.932 23.9407 13.1104 23.8892L16.2585 22.504V11.0482V1.46407L13.1104 0.104579C12.8456 0.0522895 12.5676 0 12.5676 0Z" fill="url(#paint5_linear_156_1260)"/>
<defs>
<linearGradient id="paint0_linear_156_1260" x1="6.80117" y1="17.4282" x2="-0.0415986" y2="7.0346" gradientUnits="userSpaceOnUse">
<stop stop-color="#FF4500"/>
<stop offset="0.825781" stop-color="#FF974B"/>
<stop offset="1" stop-color="#FF9447"/>
</linearGradient>
<linearGradient id="paint1_linear_156_1260" x1="8.98724" y1="13.849" x2="1.49201" y2="12.1276" gradientUnits="userSpaceOnUse">
<stop offset="0.000712" stop-color="#A03460"/>
<stop offset="0.605" stop-color="#FFCE47" stop-opacity="0"/>
</linearGradient>
<linearGradient id="paint2_linear_156_1260" x1="10.0747" y1="25.3396" x2="9.7729" y2="7.46114" gradientUnits="userSpaceOnUse">
<stop stop-color="#FF4500"/>
<stop offset="1" stop-color="#FF9447"/>
</linearGradient>
<linearGradient id="paint3_linear_156_1260" x1="15.1336" y1="10.2356" x2="23.841" y2="14.059" gradientUnits="userSpaceOnUse">
<stop stop-color="#FF4500"/>
<stop offset="0.773339" stop-color="#FF974B"/>
<stop offset="1" stop-color="#FF9447"/>
</linearGradient>
<linearGradient id="paint4_linear_156_1260" x1="20.8355" y1="12.6109" x2="16.3225" y2="12.6892" gradientUnits="userSpaceOnUse">
<stop offset="0.395" stop-color="#FFCE47" stop-opacity="0"/>
<stop offset="0.9993" stop-color="#A03460"/>
</linearGradient>
<linearGradient id="paint5_linear_156_1260" x1="14.584" y1="25.2634" x2="14.2822" y2="7.38491" gradientUnits="userSpaceOnUse">
<stop stop-color="#FF4500"/>
<stop offset="1" stop-color="#FF9447"/>
</linearGradient>
</defs>
</svg>
