<svg width="64" height="64" viewBox="0 0 64 64" fill="none" xmlns="http://www.w3.org/2000/svg">
<path d="M5.6075 11.0086C3.94064 12.6487 2.90906 14.9175 2.90906 17.4247V46.0007C2.90906 49.5664 5.02755 52.8003 8.32095 54.2622L12.7513 56.2286V37.1574L21.3673 43.8656V26.435L5.6075 11.0086Z" fill="url(#paint0_linear_156_1398)"/>
<path opacity="0.7" d="M5.6075 11.0086C3.94064 12.6487 2.90906 14.9175 2.90906 17.4247V46.0007C2.90906 49.5664 5.02755 52.8003 8.32095 54.2622L12.7513 56.2286V37.1574L21.3673 43.8656V26.435L5.6075 11.0086Z" fill="url(#paint1_linear_156_1398)"/>
<path d="M21.3669 3.90428V26.4344V43.8653V50.3784V60.0523L28.6357 63.2785C29.462 63.6443 30.3294 63.8803 31.2092 63.993V0C31.2092 0 30.0188 0.139439 29.0304 0.557755L21.3669 3.90428Z" fill="url(#paint2_linear_156_1398)"/>
<path d="M58.669 11.0198L47.4345 22.1145L43.3558 18.0867V29.4621L47.4345 33.7075L51.6575 29.5371V56.2515L56.0083 54.2812C59.2666 52.805 61.3553 49.5891 61.3553 46.0489V17.4244C61.3553 14.9233 60.3288 12.6589 58.669 11.0198Z" fill="url(#paint3_linear_156_1398)"/>
<path opacity="0.5" d="M58.669 11.0198L47.4345 22.1145L43.3558 18.0867V29.4621L47.4345 33.7075L51.6575 29.5371V56.2515L56.0083 54.2812C59.2666 52.805 61.3553 49.5891 61.3553 46.0489V17.4244C61.3553 14.9233 60.3288 12.6589 58.669 11.0198Z" fill="url(#paint4_linear_156_1398)"/>
<path d="M33.5134 0V64C34.0014 63.9404 34.4852 63.8418 34.9608 63.7044L43.3557 60.0107V29.4618V3.90419L34.9608 0.278877C34.2548 0.139439 33.5134 0 33.5134 0Z" fill="url(#paint5_linear_156_1398)"/>
<defs>
<linearGradient id="paint0_linear_156_1398" x1="18.1367" y1="46.4751" x2="-0.110728" y2="18.7589" gradientUnits="userSpaceOnUse">
<stop stop-color="#FF4500"/>
<stop offset="0.825781" stop-color="#FF974B"/>
<stop offset="1" stop-color="#FF9447"/>
</linearGradient>
<linearGradient id="paint1_linear_156_1398" x1="23.9662" y1="36.9306" x2="3.97889" y2="32.3402" gradientUnits="userSpaceOnUse">
<stop offset="0.000712" stop-color="#A03460"/>
<stop offset="0.605" stop-color="#FFCE47" stop-opacity="0"/>
</linearGradient>
<linearGradient id="paint2_linear_156_1398" x1="26.8656" y1="67.5723" x2="26.0608" y2="19.8964" gradientUnits="userSpaceOnUse">
<stop stop-color="#FF4500"/>
<stop offset="1" stop-color="#FF9447"/>
</linearGradient>
<linearGradient id="paint3_linear_156_1398" x1="40.3559" y1="27.2948" x2="63.5757" y2="37.4905" gradientUnits="userSpaceOnUse">
<stop stop-color="#FF4500"/>
<stop offset="0.773339" stop-color="#FF974B"/>
<stop offset="1" stop-color="#FF9447"/>
</linearGradient>
<linearGradient id="paint4_linear_156_1398" x1="55.5611" y1="33.629" x2="43.5264" y2="33.8379" gradientUnits="userSpaceOnUse">
<stop offset="0.395" stop-color="#FFCE47" stop-opacity="0"/>
<stop offset="0.9993" stop-color="#A03460"/>
</linearGradient>
<linearGradient id="paint5_linear_156_1398" x1="38.8903" y1="67.369" x2="38.0855" y2="19.6931" gradientUnits="userSpaceOnUse">
<stop stop-color="#FF4500"/>
<stop offset="1" stop-color="#FF9447"/>
</linearGradient>
</defs>
</svg>
